<?xml version="1.0" encoding="UTF-8"?>
<svg version="1.1" xmlns="http://www.w3.org/2000/svg" width="1024" height="1024">
<path d="M0 0 C1.35698876 -0.00374305 2.71397537 -0.00834716 4.07095861 -0.01373065 C7.77615849 -0.02589574 11.48126764 -0.02570788 15.18648291 -0.02334189 C19.19215612 -0.02293206 23.1978009 -0.03398885 27.20346069 -0.04345703 C35.04346749 -0.06003354 42.8834442 -0.0655651 50.72346705 -0.06668179 C57.1017971 -0.06763408 63.48011729 -0.07175341 69.85844421 -0.07808304 C87.96957018 -0.09568816 106.0806725 -0.10492333 124.19180709 -0.10342209 C125.65479532 -0.10330222 125.65479532 -0.10330222 127.14733887 -0.10317993 C128.12386514 -0.10309817 129.10039141 -0.10301641 130.10650939 -0.10293217 C145.91734471 -0.10212001 161.72808459 -0.12124198 177.53889233 -0.14945666 C193.80018105 -0.17824455 210.06142334 -0.19199364 226.32273817 -0.19026911 C235.44131979 -0.18960713 244.55980143 -0.19501457 253.67835999 -0.21662521 C261.44516472 -0.23491513 269.21182417 -0.23912085 276.97864121 -0.22560637 C280.93436286 -0.21911518 284.88980645 -0.21881823 288.84550095 -0.23631287 C319.88794343 -0.36507758 343.90644198 3.56298882 367.39050293 25.26742554 C368.76952537 26.89649051 370.1068724 28.56218414 371.39050293 30.26742554 C371.96671387 31.0112146 372.5429248 31.75500366 373.13659668 32.52133179 C386.10300291 50.21912875 387.99139193 69.72702173 387.95227051 90.9180603 C387.96266786 93.16347575 387.97478261 95.40888378 387.98846436 97.65428162 C388.02049364 103.73340129 388.02811251 109.81232839 388.03093934 115.89152265 C388.0378764 122.35841921 388.06652174 128.82522475 388.09233093 135.29206848 C388.13288421 146.22436073 388.15880444 157.15660388 388.17443848 168.08895874 C388.19024138 179.12254769 388.21724405 190.15602059 388.25842285 201.18954468 C388.26090853 201.85976413 388.26339422 202.52998357 388.26595522 203.2205127 C388.2759745 205.92144614 388.28601471 208.62237949 388.29608364 211.32331274 C388.4183478 244.30471665 388.45262502 277.2858304 388.39050293 310.26742554 C388.38841292 311.42327746 388.38632292 312.57912939 388.38416958 313.77000713 C388.35782792 327.52581617 388.30275835 341.28100747 388.19379234 355.03642082 C388.16471549 358.73750411 388.14382721 362.43847685 388.13071632 366.13965034 C388.11495323 370.37799157 388.07999895 374.61573835 388.02970338 378.85380673 C388.01462393 380.36439488 388.00578471 381.87506306 388.0042932 383.38572574 C387.983349 396.52045965 385.82414213 408.93189367 379.57800293 420.64242554 C379.05653687 421.64535645 379.05653687 421.64535645 378.52453613 422.66854858 C375.6709678 428.0187454 372.49149693 432.78170754 368.39050293 437.26742554 C367.58999512 438.15945679 366.7894873 439.05148804 365.96472168 439.97055054 C352.43150432 454.30675185 333.31762548 464.10264865 313.41010416 464.88023865 C312.47185505 464.90221656 311.53360595 464.92419447 310.56692505 464.94683838 C309.53921545 464.97994232 308.51150584 465.01304626 307.45265353 465.04715335 C294.85473884 465.41126091 282.25115405 465.41012091 269.64907312 465.39815021 C266.04167665 465.39584478 262.43428457 465.3994007 258.82688904 465.40213013 C251.79626006 465.40653261 244.76564188 465.40563633 237.73501252 465.40271749 C232.01256631 465.40044184 226.29012308 465.4001602 220.56767654 465.4012413 C219.33733252 465.40147115 219.33733252 465.40147115 218.08213306 465.40170565 C216.41491297 465.40202543 214.74769287 465.40234964 213.08047278 465.40267824 C197.51724843 465.40551675 181.95403001 465.40227151 166.39080663 465.39687787 C153.08666598 465.39240964 139.78253405 465.3931891 126.47839355 465.39779663 C110.96066603 465.4031684 95.44294368 465.40524397 79.92521536 465.40218437 C78.26537617 465.40186588 76.60553698 465.40155151 74.94569778 465.4012413 C74.12940419 465.40108703 73.31311059 465.40093275 72.47208082 465.4007738 C66.76691221 465.39991656 61.06174692 465.40135426 55.35657883 465.40372086 C48.38919803 465.40654803 41.42182846 465.40571976 34.45444892 465.40044011 C30.91138418 465.39784227 27.36833805 465.39673009 23.82527351 465.40008926 C11.12164748 465.40921236 -1.5740988 465.37639684 -14.26974487 464.88433838 C-15.18079597 464.85398156 -16.09184707 464.82362475 -17.03050578 464.79234803 C-17.8597564 464.75426305 -18.68900703 464.71617808 -19.54338646 464.67693901 C-20.26118857 464.64634168 -20.97899068 464.61574434 -21.71854436 464.58421981 C-23.60949707 464.26742554 -23.60949707 464.26742554 -26.60949707 462.26742554 C-28.43189043 461.49122096 -30.26703564 460.74471295 -32.10949707 460.01742554 C-55.25346198 450.40420602 -69.60042872 435.18838055 -79.60949707 412.26742554 C-82.87288383 404.04685265 -83.8040369 396.31592874 -84.32824707 387.54476929 C-84.49357689 384.47311979 -84.49357689 384.47311979 -85.11983705 382.38809174 C-85.69751715 379.88621979 -85.73033126 377.62783381 -85.72530746 375.05942249 C-85.72566521 373.99950653 -85.72602296 372.93959056 -85.72639155 371.84755594 C-85.72163412 370.68406411 -85.71687669 369.52057228 -85.7119751 368.32182312 C-85.71086267 367.08491657 -85.70975024 365.84801002 -85.7086041 364.57362145 C-85.70443105 361.13797122 -85.69569568 357.70238749 -85.68499684 354.26675498 C-85.67452898 350.56163178 -85.66983496 346.85650046 -85.6643219 343.15136719 C-85.65109869 335.04533202 -85.63023115 326.9393273 -85.60775661 318.83331323 C-85.59373014 313.76699783 -85.58122703 308.70067939 -85.56900787 303.63435936 C-85.53487787 289.59573611 -85.49888201 275.55712059 -85.45591354 261.51852131 C-85.4531655 260.61981692 -85.45041745 259.72111253 -85.44758613 258.79517467 C-85.44482946 257.89435074 -85.44207279 256.99352681 -85.43923259 256.06540519 C-85.43364729 254.24008581 -85.42806488 252.41476642 -85.42248535 250.58944702 C-85.41971617 249.6840308 -85.41694698 248.77861458 -85.41409388 247.8457615 C-85.36965826 233.20113136 -85.33855364 218.55650614 -85.31328556 203.9118316 C-85.28712705 188.86094923 -85.24982669 173.81012767 -85.20146585 158.75929993 C-85.17458831 150.31530776 -85.15237893 141.87136259 -85.14244843 133.42733192 C-85.13392894 126.23053141 -85.11512566 119.03384671 -85.08334461 111.83710984 C-85.06745354 108.17123139 -85.05613621 104.50550234 -85.05794716 100.83958626 C-85.06580996 71.74229574 -82.53142593 45.82424677 -61.29699707 23.95492554 C-44.22653488 6.88446334 -23.91338843 -0.05960427 0 0 Z M-42.60949707 46.26742554 C-50.2135297 55.57921963 -54.72508906 66.85482781 -54.74092484 78.88607788 C-54.74476598 79.98665999 -54.74860713 81.08724211 -54.75256467 82.22117519 C-54.75169819 83.41979718 -54.7508317 84.61841917 -54.74993896 85.85336304 C-54.75291009 87.13493066 -54.75588121 88.41649828 -54.75894237 89.73690128 C-54.76699047 93.28781638 -54.76880072 96.83871124 -54.76953983 100.38963437 C-54.77139426 104.22214882 -54.77894365 108.05465285 -54.78567505 111.88716125 C-54.7992443 120.2655765 -54.80528116 128.64398695 -54.80968571 137.02241135 C-54.81245105 142.25790254 -54.81668899 147.49339189 -54.82118988 152.72888184 C-54.83338172 167.23510115 -54.84368054 181.741319 -54.84706497 196.24754333 C-54.84728454 197.17560828 -54.8475041 198.10367323 -54.84773032 199.05986136 C-54.8479486 199.99010495 -54.84816688 200.92034853 -54.84839177 201.87878132 C-54.84883523 203.76370049 -54.84928179 205.64861965 -54.84973145 207.53353882 C-54.84995288 208.46851712 -54.8501743 209.40349541 -54.85040244 210.36680639 C-54.85434748 225.50482753 -54.87179287 240.64280044 -54.89509097 255.78080297 C-54.91883832 271.33681314 -54.9312684 286.89279916 -54.93243289 302.44882774 C-54.93334786 311.17720542 -54.93905496 319.90552029 -54.9572525 328.63388062 C-54.97269936 336.06893337 -54.97774709 343.50390391 -54.9695144 350.93896967 C-54.96562379 354.72805631 -54.96645904 358.51697763 -54.98057175 362.30604362 C-54.99577565 366.42601972 -54.98739709 370.54562788 -54.97698975 374.6656189 C-54.98504615 375.84639511 -54.99310256 377.02717133 -55.00140309 378.24372864 C-54.90945565 393.89112771 -51.27998269 409.00717107 -40.32043457 420.72055054 C-20.61737209 438.53427826 3.34799049 436.57485023 28.2843802 436.54353392 C32.01856702 436.54103739 35.75273018 436.55011641 39.48690796 436.55757141 C46.77703931 436.57023808 54.06713369 436.5721224 61.35727419 436.56977115 C67.28729862 436.56797955 73.21731194 436.56975554 79.14733505 436.57399559 C80.41896437 436.57488837 80.41896437 436.57488837 81.71628316 436.57579919 C83.43907985 436.57701108 85.16187654 436.57822521 86.88467322 436.57944157 C102.99278228 436.59028516 119.10087033 436.58816916 135.20898055 436.58205672 C149.91486779 436.57688474 164.62068886 436.58815613 179.32656302 436.60715494 C194.46938255 436.62656668 209.61217081 436.63478386 224.75500286 436.63103169 C233.23957493 436.62912543 241.72409064 436.63155131 250.2086525 436.64574623 C257.42780297 436.65770331 264.64686231 436.65901632 271.86601414 436.64695606 C275.54201434 436.64109893 279.2178482 436.63987941 282.89383698 436.65195847 C316.33133477 436.92621448 316.33133477 436.92621448 344.39050293 420.26742554 C356.87884287 405.85443776 359.71760184 390.87366592 359.64447021 372.25057983 C359.6475902 371.00724475 359.65071018 369.76390966 359.6539247 368.48289776 C359.66046854 365.0712096 359.65818585 361.65974522 359.65195227 358.24807119 C359.64739433 354.55339424 359.65442797 350.8587357 359.65991211 347.1640625 C359.66877235 339.94175979 359.66689919 332.71949882 359.66108683 325.49719453 C359.65655702 319.62375692 359.65596312 313.75033095 359.65813446 307.87689209 C359.65859416 306.61959951 359.65859416 306.61959951 359.65906315 305.33690709 C359.65970264 303.63375353 359.66035107 301.93059998 359.66100833 300.22744644 C359.66670175 284.28349924 359.66016926 268.33957509 359.6494076 252.39563167 C359.64047299 238.73602278 359.64202531 225.07644788 359.65124512 211.4168396 C359.66196523 195.52718071 359.66615252 179.63754199 359.66002059 163.74787998 C359.65938354 162.05123965 359.6587548 160.35459932 359.65813446 158.65795898 C359.65782591 157.82333356 359.65751736 156.98870814 359.65719946 156.12879103 C359.65547774 150.26723187 359.65837631 144.40568558 359.66309357 138.54412842 C359.66872178 131.39395444 359.66714533 124.24382434 359.65653208 117.09365535 C359.65130138 113.45050059 359.64917386 109.80741879 359.65583038 106.16426468 C359.66295609 102.20422624 359.65440739 98.24430544 359.64447021 94.28427124 C359.64893166 93.14815745 359.6533931 92.01204367 359.65798974 90.84150219 C359.57753984 74.23138797 356.77805099 58.90087601 345.39050293 46.26742554 C344.91483887 45.66543335 344.4391748 45.06344116 343.94909668 44.44320679 C340.20044156 40.08771977 335.68240686 37.55459276 330.64050293 34.95492554 C329.99734131 34.6171106 329.35417969 34.27929565 328.69152832 33.9312439 C319.00332251 29.19444138 308.69862054 28.97455384 298.10044861 29.02018738 C296.8036195 29.01777296 295.50679038 29.01535855 294.17066342 29.01287097 C290.60048274 29.00650569 287.03041686 29.01248788 283.46024382 29.02063525 C279.59858397 29.02725019 275.73693617 29.02225556 271.87527466 29.01875305 C264.32216031 29.01372606 256.76908994 29.01933373 249.21598106 29.02860335 C240.41263077 29.03901675 231.60928985 29.03891638 222.80593456 29.03843077 C207.09493833 29.03793075 191.3839625 29.04707555 175.67297363 29.06161499 C160.44119902 29.07570357 145.20944235 29.0827856 129.97766113 29.0821228 C129.03932752 29.08208285 128.10099392 29.08204289 127.13422596 29.08200172 C126.19748549 29.08196137 125.26074502 29.08192101 124.29561847 29.08187944 C106.93425017 29.08118887 89.57288947 29.0870835 72.21152363 29.09603265 C66.08057989 29.09904372 59.94963756 29.10011158 53.81869316 29.10056496 C46.3441386 29.10124846 38.86959685 29.1057322 31.39504772 29.11489777 C27.58420153 29.11950133 23.77337166 29.12256658 19.96252251 29.12130356 C15.82618813 29.11999917 11.68990186 29.12647791 7.55357361 29.13371277 C6.35677473 29.13216417 5.15997585 29.13061556 3.92691034 29.12902004 C-14.41004749 29.18193616 -29.45528666 32.45976623 -42.60949707 46.26742554 Z " fill="#30353C" transform="translate(359.6094970703125,287.7325744628906)"/>
<path d="M0 0 C1.07931541 -0.01270432 1.07931541 -0.01270432 2.18043518 -0.02566528 C4.5444639 -0.04894565 6.90783827 -0.05005957 9.27197266 -0.04882812 C10.92575334 -0.05593557 12.57953158 -0.06363542 14.23330688 -0.07189941 C17.69483295 -0.08532394 21.15613102 -0.08692237 24.61767578 -0.08105469 C29.03838801 -0.07516298 33.45800032 -0.10573675 37.87849998 -0.14617157 C41.29305849 -0.17211066 44.7073544 -0.17492036 48.12199783 -0.17127991 C49.75099067 -0.17296562 51.37999636 -0.18255508 53.00889206 -0.20042419 C69.51000464 -0.36152207 69.51000464 -0.36152207 75.56103516 5.41992188 C79.33438671 9.48353124 80.68095427 12.49569922 80.70249367 17.99623299 C80.70858481 18.94065604 80.71467595 19.8850791 80.72095168 20.85812104 C80.7226119 21.89769042 80.72427213 22.93725981 80.72598267 24.0083313 C80.73162621 25.11118717 80.73726975 26.21404304 80.74308431 27.35031879 C80.76085684 31.06508436 80.77152012 34.77983673 80.78222656 38.49462891 C80.79343818 41.15038826 80.80503469 43.80614342 80.8170929 46.4618988 C80.84557123 52.93957387 80.86867809 59.41725754 80.88987066 65.89496012 C80.90719469 71.16179102 80.92642881 76.4286117 80.94703293 81.69543076 C80.94996152 82.44454868 80.95289012 83.1936666 80.95590746 83.96548506 C80.96186452 85.48729589 80.96782573 87.00910671 80.97379105 88.53091751 C81.02954648 102.81365689 81.07919699 117.09641257 81.12679605 131.37918113 C81.16775798 143.62683207 81.21402063 155.87445363 81.26416016 168.12207031 C81.32237921 182.34376886 81.37722047 196.56547396 81.42676103 210.78720558 C81.43205902 212.30530987 81.43736163 213.82341414 81.44266891 215.3415184 C81.44527875 216.08844091 81.44788858 216.83536342 81.4505775 217.60491995 C81.46917544 222.86060594 81.4901829 228.11627911 81.51213455 233.37195206 C81.53885492 239.78427875 81.56187803 246.19660615 81.58021952 252.60896249 C81.5896655 255.87889673 81.60129776 259.14879669 81.61632347 262.41871071 C81.63235105 265.9690145 81.64199941 269.51928104 81.65005493 273.0696106 C81.6561766 274.09579565 81.66229827 275.12198071 81.66860545 276.17926228 C81.6853123 294.49682597 81.6853123 294.49682597 75.56103516 301.41992188 C70.00579541 305.71995085 64.77306579 306.54017273 57.93164062 306.59692383 C57.27412308 306.60349503 56.61660553 306.61006622 55.93916321 306.61683655 C53.76884835 306.6365013 51.59860262 306.64821955 49.42822266 306.65820312 C48.68312565 306.66227865 47.93802864 306.66635418 47.17035294 306.67055321 C43.22310924 306.69138932 39.27590001 306.70569915 35.32861328 306.71508789 C31.27367569 306.72612077 27.21929162 306.76049092 23.16454887 306.80025959 C20.02789367 306.82654885 16.89136762 306.83479076 13.75461197 306.83836937 C12.2612346 306.84320709 10.76786188 306.85473974 9.27459335 306.87340736 C0.26369857 306.97901341 -8.69064814 307.00579073 -16.07595825 301.1139679 C-22.18957952 294.63685288 -21.73027704 285.53366785 -21.69966125 277.23023987 C-21.7034868 276.12311187 -21.70731235 275.01598388 -21.71125382 273.87530655 C-21.72154924 270.1760183 -21.7175982 266.47688627 -21.71362305 262.77758789 C-21.7179714 260.12108854 -21.72309072 257.46460054 -21.72911072 254.80810547 C-21.74183866 248.34780407 -21.74365382 241.88754428 -21.74131045 235.42723245 C-21.73952514 230.17482586 -21.7412815 224.92243187 -21.7455349 219.67002678 C-21.74613009 218.92158631 -21.74672527 218.17314584 -21.7473385 217.40202535 C-21.74855029 215.8814222 -21.74976442 214.36081906 -21.75098088 212.84021591 C-21.7618489 198.59081434 -21.75969731 184.34143646 -21.75359603 170.09203356 C-21.7484265 157.06530832 -21.75968457 144.03865785 -21.77869425 131.0119474 C-21.79808023 117.62438669 -21.80632738 104.23686134 -21.802571 90.8492865 C-21.80066024 83.33785442 -21.80313438 75.82648599 -21.81728554 68.31506538 C-21.82920994 61.92111488 -21.83059232 55.52726722 -21.81849537 49.13331527 C-21.8126143 45.87341343 -21.8131192 42.61373801 -21.82349777 39.35384178 C-21.83395257 35.8145831 -21.82587406 32.27582815 -21.81318665 28.73658752 C-21.82056093 27.71381307 -21.82793522 26.69103861 -21.83553296 25.63727099 C-21.77922697 18.16016975 -20.91690694 11.50060664 -16.12646484 5.54492188 C-10.8531119 1.37529397 -6.71286516 0.04364529 0 0 Z " fill="#248FE8" transform="translate(368.43896484375,372.580078125)"/>
<path d="M0 0 C2.96604249 -0.00221181 5.93172673 -0.02051455 8.89770508 -0.03930664 C10.80851112 -0.04223725 12.7193189 -0.04422427 14.63012695 -0.04516602 C15.94127724 -0.05594429 15.94127724 -0.05594429 17.27891541 -0.06694031 C25.18763097 -0.03769114 32.25684696 0.9056788 38.5090332 6.18530273 C44.43040033 13.38696545 44.66100646 20.96374943 44.6494751 29.99620056 C44.65244622 30.7398924 44.65541734 31.48358423 44.6584785 32.24981219 C44.66708702 34.71912479 44.668667 37.18838847 44.67016602 39.65771484 C44.67479958 41.43737388 44.67982496 43.21703193 44.68521118 44.99668884 C44.69828113 49.8148472 44.70476897 54.63299166 44.70922184 59.45116496 C44.71215996 62.46444493 44.71626603 65.47772115 44.72072601 68.49099922 C44.73438369 77.92830859 44.74406007 87.36560935 44.7479279 96.80292791 C44.75241131 107.68049984 44.76997963 118.55794628 44.7989285 129.43548006 C44.82056021 137.85694635 44.8306329 146.27837735 44.83196902 154.69987112 C44.83301553 159.72416207 44.83889113 164.74833477 44.85678864 169.77259636 C44.87329616 174.49799963 44.87541181 179.22319606 44.86664963 183.94861794 C44.86588082 185.6783491 44.87020126 187.40809153 44.88010788 189.13779449 C44.9864138 208.86201134 44.9864138 208.86201134 39.1965332 216.56030273 C34.62322974 221.0272503 30.51616115 222.55766619 24.17163086 222.58935547 C22.93659821 222.60203964 21.70156555 222.61472382 20.42910767 222.62779236 C19.09376863 222.62574039 17.75843075 222.62275193 16.4230957 222.61889648 C15.038358 222.62346372 13.65362257 222.6287709 12.26889038 222.63478088 C9.3722816 222.64369335 6.47594878 222.64131126 3.5793457 222.63134766 C-0.11488039 222.6198727 -3.80814846 222.64005489 -7.50224876 222.66926479 C-10.36093095 222.68770044 -13.21938678 222.68731963 -16.07811356 222.68162727 C-18.09648989 222.68140129 -20.11484517 222.69823499 -22.13314819 222.71543884 C-31.03043692 222.64820083 -36.56814615 221.68172984 -43.3659668 215.62280273 C-49.52423763 207.28003132 -47.77049039 194.04991236 -47.73388672 184.17016602 C-47.73496162 182.47537157 -47.73690339 180.78057749 -47.73963928 179.08578491 C-47.74445826 174.51129234 -47.73686811 169.93689836 -47.72668624 165.3624177 C-47.71785203 160.55589328 -47.71966425 155.74937146 -47.720047 150.94284058 C-47.71911244 142.8714637 -47.71045812 134.80012458 -47.69677734 126.72875977 C-47.68106479 117.42489742 -47.67577904 108.12107639 -47.6765129 98.81720173 C-47.67719094 88.87519336 -47.6702345 78.93320071 -47.66106629 68.99119711 C-47.65894503 66.14335284 -47.65822648 63.29551115 -47.65782738 60.44766617 C-47.65681505 55.95453787 -47.65064662 51.4614436 -47.64066124 46.96832657 C-47.63776633 45.32897144 -47.63650468 43.6896124 -47.63708878 42.05025482 C-47.64354539 12.8702632 -47.64354539 12.8702632 -41.0534668 5.43530273 C-31.34140945 -3.09235738 -12.22145836 -0.00102092 0 0 Z " fill="#83868A" transform="translate(530.490966796875,417.814697265625)"/>
<path d="M0 0 C3.98163468 5.0355968 5.49976585 9.06133184 5.50595093 15.48083496 C5.5106309 16.13918005 5.51531087 16.79752513 5.52013266 17.47582006 C5.53204023 19.66833351 5.52264262 21.86021697 5.51318359 24.05273438 C5.5172512 25.6300747 5.52259414 27.20741217 5.52911377 28.78474426 C5.54277075 33.05952018 5.53749544 37.33407847 5.52797651 41.60885811 C5.52037153 46.0863719 5.52742786 50.5638673 5.53213501 55.04138184 C5.53759012 62.56001118 5.53040738 70.07855206 5.51611328 77.59716797 C5.49978723 86.28480732 5.50507591 94.97223544 5.5215925 103.65986967 C5.53521434 111.1241599 5.53712361 118.58838661 5.52927649 126.05268526 C5.52460382 130.50848127 5.52396397 134.96417805 5.53388596 139.41996765 C5.54256351 143.60940609 5.53651938 147.79857267 5.51920319 151.9879818 C5.51524255 153.52384172 5.51636516 155.05972459 5.52299118 156.59557533 C5.53121389 158.69541221 5.52087763 160.79438304 5.50595093 162.89416504 C5.50481985 164.06811073 5.50368877 165.24205643 5.50252342 166.45157623 C4.89733997 171.63887693 2.80953846 175.59285173 -1.1875 178.9375 C-1.74050781 179.41703125 -2.29351563 179.8965625 -2.86328125 180.390625 C-7.77986811 183.56015284 -12.98337312 184.02578959 -18.6953125 184.171875 C-19.4352243 184.1959845 -20.17513611 184.22009399 -20.93746948 184.24493408 C-22.49886883 184.29302895 -24.06041796 184.3364631 -25.62207031 184.37548828 C-27.97276256 184.4367897 -30.32194776 184.52013344 -32.671875 184.60546875 C-57.11872042 185.368447 -57.11872042 185.368447 -65.875 177.6875 C-68.875 173.65625 -68.875 173.65625 -68.875 170.6875 C-69.535 170.3575 -70.195 170.0275 -70.875 169.6875 C-70.89853454 152.40434319 -70.91607879 135.12119149 -70.92681217 117.83802223 C-70.93193202 109.81014083 -70.93889072 101.78226948 -70.95043945 93.75439453 C-70.96051995 86.74369053 -70.96688461 79.73299382 -70.96908849 72.72228277 C-70.97037333 69.02255497 -70.97331321 65.32284799 -70.98073006 61.62312698 C-71.00780597 47.4279805 -70.96986298 33.23468653 -70.55639648 19.04443359 C-70.53429894 17.97858347 -70.5122014 16.91273335 -70.48943424 15.81458473 C-70.27036085 9.64617631 -69.71421282 4.8002828 -65.375 0.04296875 C-61.33801977 -3.10040909 -58.51944288 -4.40642663 -53.45458984 -4.56542969 C-52.56291107 -4.59505798 -51.6712323 -4.62468628 -50.75253296 -4.6552124 C-49.79005646 -4.68133606 -48.82757996 -4.70745972 -47.8359375 -4.734375 C-46.84050934 -4.76227112 -45.84508118 -4.79016724 -44.81948853 -4.81890869 C-42.70964551 -4.87532525 -40.59972602 -4.92894033 -38.48974609 -4.97998047 C-35.28291373 -5.06166165 -32.07726365 -5.16537392 -28.87109375 -5.26953125 C-26.81774274 -5.32168532 -24.76435742 -5.37250848 -22.7109375 -5.421875 C-21.76060638 -5.45609558 -20.81027527 -5.49031616 -19.83114624 -5.52557373 C-12.40548202 -5.66436505 -5.90774311 -4.75188033 0 0 Z " fill="#82868A" transform="translate(675.875,431.3125)"/>
<path d="M0 0 C0.66 0.33 1.32 0.66 2 1 C1.57637491 2.17372162 1.57637491 2.17372162 1.14419174 3.37115479 C-3.19934073 17.54347826 -2.58297459 32.08523206 -2.54880548 46.75623655 C-2.54381702 50.7942084 -2.56199914 54.83208859 -2.57722473 58.87002563 C-2.60043454 65.84881781 -2.60928984 72.82750638 -2.60811615 79.80633545 C-2.60644043 89.89625718 -2.62684732 99.98604159 -2.65247145 110.07592654 C-2.69346294 126.45002506 -2.71684256 142.82409872 -2.72900391 159.19824219 C-2.74084854 175.09475083 -2.76107636 190.99121275 -2.79248047 206.88769531 C-2.79441657 207.86920028 -2.79635267 208.85070524 -2.79834744 209.86195278 C-2.80811266 214.78636642 -2.81804165 219.71077972 -2.82805204 224.63519287 C-2.91075525 265.42343937 -2.96481592 306.21168659 -3 347 C-3.66 347 -4.32 347 -5 347 C-5.06058594 346.03578125 -5.12117188 345.0715625 -5.18359375 344.078125 C-5.26738281 342.81484375 -5.35117187 341.5515625 -5.4375 340.25 C-5.51871094 338.99703125 -5.59992188 337.7440625 -5.68359375 336.453125 C-5.87854701 333.2327252 -5.87854701 333.2327252 -6.51253724 331.10967988 C-7.08955875 328.61240054 -7.12082514 326.35578303 -7.11581039 323.79199696 C-7.11616814 322.73208099 -7.11652589 321.67216503 -7.11689448 320.5801304 C-7.11213705 319.41663857 -7.10737962 318.25314674 -7.10247803 317.05439758 C-7.1013656 315.81749103 -7.10025317 314.58058448 -7.09910703 313.30619591 C-7.09493398 309.87054569 -7.08619861 306.43496195 -7.07549977 302.99932945 C-7.06503191 299.29420624 -7.06033789 295.58907493 -7.05482483 291.88394165 C-7.04160162 283.77790648 -7.02073408 275.67190177 -6.99825954 267.56588769 C-6.98423307 262.49957229 -6.97172996 257.43325386 -6.9595108 252.36693382 C-6.9253808 238.32831057 -6.88938494 224.28969506 -6.84641647 210.25109577 C-6.84366843 209.35239138 -6.84092038 208.45368699 -6.83808906 207.52774913 C-6.83533239 206.6269252 -6.83257572 205.72610128 -6.82973552 204.79797965 C-6.82415022 202.97266027 -6.81856781 201.14734088 -6.81298828 199.32202148 C-6.8102191 198.41660526 -6.80744991 197.51118904 -6.80459681 196.57833596 C-6.76016119 181.93370583 -6.72905657 167.2890806 -6.70378849 152.64440606 C-6.67762998 137.59352369 -6.64032962 122.54270213 -6.59196877 107.4918744 C-6.56509124 99.04788222 -6.54288186 90.60393706 -6.53295135 82.15990639 C-6.52443187 74.96310587 -6.50562859 67.76642118 -6.47384754 60.5696843 C-6.45795647 56.90380585 -6.44663914 53.23807681 -6.44845009 49.57216072 C-6.45782989 14.1436023 -6.45782989 14.1436023 0 0 Z " fill="#2A2D32" transform="translate(281,339)"/>
<path d="M0 0 C1.27315482 3.59504493 0.67537543 5.81874378 -0.41369057 9.41828346 C-2.19573239 16.1321196 -2.42014255 22.39027294 -2.38095093 29.3074646 C-2.3856309 30.59415877 -2.39031087 31.88085294 -2.39513266 33.20653784 C-2.40755316 36.74397447 -2.40151359 40.28116553 -2.39217401 43.81860256 C-2.38534662 47.64693223 -2.395883 51.4752216 -2.40411377 55.30354309 C-2.41741494 62.79036379 -2.41458933 70.27709398 -2.40587585 77.76391815 C-2.39908441 83.85285953 -2.39818888 89.94177566 -2.4014473 96.03071976 C-2.401907 96.89929055 -2.40236669 97.76786134 -2.40284032 98.66275246 C-2.40379956 100.42758882 -2.4047722 102.19242517 -2.4057581 103.95726152 C-2.41430166 120.48543899 -2.40449463 137.01356645 -2.388357 153.54173572 C-2.3749595 167.70135147 -2.37727923 181.8608934 -2.39111328 196.02050781 C-2.40719557 212.48882563 -2.41347281 228.95709965 -2.40427649 245.42542422 C-2.40332091 247.18416571 -2.4023778 248.94290721 -2.4014473 250.70164871 C-2.40098447 251.56683362 -2.40052164 252.43201854 -2.40004479 253.32342117 C-2.39746248 259.39890709 -2.40180956 265.47436506 -2.40888596 271.54984665 C-2.41733085 278.96280754 -2.41495852 286.37567323 -2.39904372 293.78862332 C-2.39120028 297.56559132 -2.3880016 301.34240104 -2.39799118 305.1193676 C-2.40868749 309.22590346 -2.39585107 313.33204532 -2.38095093 317.43856812 C-2.38764309 318.61525161 -2.39433526 319.79193511 -2.40123022 321.00427568 C-2.29008484 336.88414569 1.46024867 352.46024867 13 364 C15.10581775 365.6286568 17.23214526 367.19474684 19.42578125 368.703125 C19.94527344 369.13109375 20.46476562 369.5590625 21 370 C21 370.66 21 371.32 21 372 C13.0598875 369.48275419 6.17753783 361.58914618 2.0625 354.5 C-2.02805613 346.22963923 -5.11933539 337.73929668 -5.13142776 328.45475006 C-5.13526891 327.34509211 -5.13911005 326.23543416 -5.1430676 325.09215021 C-5.14220112 323.87826042 -5.14133463 322.66437062 -5.14044189 321.41369629 C-5.14341302 320.12002687 -5.14638414 318.82635745 -5.1494453 317.49348593 C-5.15750405 313.9041762 -5.15930424 310.31488648 -5.16004276 306.72556877 C-5.16189534 302.85351909 -5.16944382 298.98147973 -5.17617798 295.10943604 C-5.18975502 286.64218856 -5.19578537 278.17494583 -5.20018864 269.70768929 C-5.20295278 264.41777064 -5.20719052 259.12785382 -5.21169281 253.8379364 C-5.2238859 239.18420781 -5.23418433 224.53048068 -5.2375679 209.87674713 C-5.23778747 208.93899267 -5.23800703 208.0012382 -5.23823325 207.03506693 C-5.23845153 206.09509494 -5.23866981 205.15512295 -5.2388947 204.18666697 C-5.23933816 202.28199673 -5.23978473 200.37732649 -5.24023438 198.47265625 C-5.2404558 197.5278783 -5.24067723 196.58310034 -5.24090537 195.60969275 C-5.24485052 180.31250281 -5.2622957 165.01536058 -5.2855939 149.71818906 C-5.30933511 134.00288364 -5.32177106 118.28760214 -5.32293582 102.5722785 C-5.32385116 93.7528152 -5.32956758 84.93341404 -5.34775543 76.1139679 C-5.36319401 68.60127521 -5.36825488 61.08866386 -5.36001733 53.57595831 C-5.35612375 49.74649786 -5.3569767 45.91720101 -5.37107468 42.08776093 C-5.38625592 37.92578147 -5.37790871 33.76416695 -5.36749268 29.60217285 C-5.37554908 28.40612883 -5.38360548 27.21008481 -5.39190602 25.97779703 C-5.34104995 17.25318905 -4.96339345 7.44509017 0 0 Z " fill="#0E151D" transform="translate(308,345)"/>
<path d="M0 0 C0.83660024 0.10618854 0.83660024 0.10618854 1.6901015 0.2145223 C9.18680836 1.07359569 16.60876741 1.13717792 24.14822388 1.12025452 C25.56341155 1.12069128 26.97859914 1.12156813 28.39378631 1.12284368 C32.25913996 1.12506794 36.12446563 1.12109584 39.98981571 1.11606562 C44.16691139 1.11173146 48.34400561 1.11320965 52.52110291 1.1139679 C59.75044247 1.11449125 66.97977298 1.11136411 74.20911026 1.10573006 C84.66141044 1.09758956 95.11370626 1.09499722 105.56600927 1.09374207 C122.52577949 1.09155555 139.48554489 1.08490633 156.4453125 1.07543945 C172.9163409 1.06625497 189.38736799 1.05917921 205.85839844 1.05493164 C206.87433669 1.05466892 207.89027495 1.05440619 208.93699922 1.05413551 C214.03386116 1.05283043 219.13072312 1.05156674 224.22758508 1.05032361 C266.48506007 1.03996347 308.74252976 1.02235605 351 1 C351 1.66 351 2.32 351 3 C348.10084134 3.81324004 345.41330573 4.17633734 342.40783119 4.31185722 C341.03519837 4.37381867 341.03519837 4.37381867 339.6348356 4.43703187 C338.13948343 4.49513545 338.13948343 4.49513545 336.61392212 4.55441284 C335.55463049 4.59654022 334.49533885 4.6386676 333.40394747 4.68207157 C320.69072937 5.14235326 307.9785609 5.14280737 295.25857019 5.13072467 C291.65117372 5.12841925 288.04378164 5.13197516 284.43638611 5.13470459 C277.40575713 5.13910708 270.37513895 5.13821079 263.34450959 5.13529195 C257.62206338 5.1330163 251.89962015 5.13273466 246.17717361 5.13381577 C244.94682959 5.13404561 244.94682959 5.13404561 243.69163013 5.13428011 C242.02441004 5.13459989 240.35718995 5.13492411 238.68996985 5.1352527 C223.1267455 5.13809122 207.56352708 5.13484597 192.0003037 5.12945233 C178.69616305 5.1249841 165.39203112 5.12576356 152.08789062 5.13037109 C136.57016311 5.13574286 121.05244075 5.13781843 105.53471243 5.13475883 C103.87487324 5.13444034 102.21503405 5.13412597 100.55519485 5.13381577 C99.73890126 5.13366149 98.92260766 5.13350721 98.08157789 5.13334826 C92.37640928 5.13249102 86.67124399 5.13392872 80.9660759 5.13629532 C73.9986951 5.13912249 67.03132553 5.13829422 60.06394599 5.13301457 C56.52088125 5.13041673 52.97783512 5.12930456 49.43477058 5.13266373 C33.59244752 5.14404087 17.81856765 4.89801887 2 4 C1.34 2.68 0.68 1.36 0 0 Z " fill="#13161A" transform="translate(334,748)"/>
<path d="M0 0 C1.69203963 -0.00689819 1.69203963 -0.00689819 3.41826189 -0.01393574 C5.28520265 -0.0062204 5.28520265 -0.0062204 7.18985939 0.00165081 C8.50788225 -0.00076361 9.82590511 -0.00317802 11.18386805 -0.0056656 C14.85018432 -0.01209538 18.51639061 -0.00599839 22.18269968 0.00209868 C26.1337034 0.00866358 30.08469457 0.0037298 34.03569984 0.00021648 C41.77940328 -0.00483172 49.5230641 0.00082413 57.26676224 0.01006678 C66.28038182 0.02043924 75.29399212 0.02038089 84.30761655 0.01989421 C100.38927364 0.01939325 116.47091088 0.0285636 132.55256081 0.04307842 C148.16421813 0.05716179 163.77585797 0.06424942 179.38752174 0.06358624 C180.34870613 0.06354628 181.30989051 0.06350632 182.3002017 0.06346516 C183.25970828 0.0634248 184.21921487 0.06338445 185.20779741 0.06334287 C202.96810737 0.06265313 220.72840988 0.06854312 238.48871743 0.07749609 C244.77420346 0.08051396 251.05968812 0.08157583 257.34517479 0.08202839 C265.00488503 0.08271032 272.66458272 0.08717199 280.32428764 0.0963612 C284.2336967 0.1009807 288.14308971 0.10402413 292.05250168 0.10276699 C295.63014219 0.10167232 299.20774721 0.10518815 302.78538032 0.11241551 C304.69527713 0.11508978 306.60517885 0.11286837 308.51507604 0.11048347 C310.21493892 0.11532014 310.21493892 0.11532014 311.94914246 0.12025452 C313.41565123 0.12131115 313.41565123 0.12131115 314.91178644 0.12238914 C317.57053255 0.24748312 320.0094791 0.65514991 322.60041237 1.24888897 C322.60041237 1.57888897 322.60041237 1.90888897 322.60041237 2.24888897 C260.21790908 3.43796033 197.83230424 3.40521571 135.44121964 3.37834975 C124.68462856 3.37381485 113.92804822 3.37471261 103.17145729 3.37926006 C90.50022872 3.38461483 77.82900644 3.38672247 65.15777689 3.3836478 C63.80984946 3.38332938 62.46192203 3.383015 61.1139946 3.38270473 C60.12038882 3.38247332 60.12038882 3.38247332 59.10671021 3.38223723 C54.47738597 3.3813798 49.848066 3.38286731 45.21874237 3.38518429 C39.02989712 3.38807045 32.84107235 3.38607369 26.65222931 3.38029003 C24.39030428 3.3789702 22.12837751 3.37934335 19.86645317 3.3815527 C16.77754117 3.3842925 13.68869461 3.38084955 10.59978676 3.37587261 C9.26739264 3.37921869 9.26739264 3.37921869 7.90808147 3.38263237 C2.39883608 3.36545071 -2.93303086 2.94304795 -8.39958763 2.24888897 C-5.03204795 0.00386252 -3.93721885 -0.00087566 0 0 Z " fill="#121419" transform="translate(354.3995876312256,314.7511110305786)"/>
<path d="M0 0 C0.66 0 1.32 0 2 0 C2.15279011 29.34843635 2.29787294 58.69690397 2.4332476 88.04542575 C2.44950442 91.5684514 2.46582215 95.09147676 2.48217773 98.61450195 C2.48543066 99.31540972 2.48868358 100.01631749 2.49203508 100.73846488 C2.537426 110.49185057 2.58606314 120.24521509 2.6374263 129.99857108 C2.98678662 196.34136743 3.10671526 262.66279845 2 329 C1.34 329.33 0.68 329.66 0 330 C0 221.1 0 112.2 0 0 Z " fill="#06090C" transform="translate(745,356)"/>
<path d="M0 0 C0.66 0 1.32 0 2 0 C2 92.73 2 185.46 2 281 C1.67 281 1.34 281 1 281 C0.96241577 279.43487671 0.96241577 279.43487671 0.92407227 277.83813477 C0.82918628 273.92982804 0.72917119 270.02166585 0.62768555 266.11352539 C0.58464114 264.42898972 0.54294777 262.74441892 0.50268555 261.05981445 C0.44423571 258.62440446 0.38076577 256.18916642 0.31640625 253.75390625 C0.29969376 253.01290176 0.28298126 252.27189728 0.26576233 251.50843811 C0.16633257 247.91880026 -0.04871638 244.40051344 -0.50489616 240.83765602 C-1.05799401 235.96933171 -1.13968158 231.16667381 -1.12698364 226.27108765 C-1.12854363 225.33320329 -1.13010362 224.39531894 -1.13171089 223.42901385 C-1.13567692 220.30861661 -1.13254838 217.18826863 -1.12939453 214.06787109 C-1.1307505 211.82177197 -1.13253154 209.57567307 -1.13470459 207.32957458 C-1.13925506 201.24511527 -1.13749931 195.16067296 -1.1343255 189.07621336 C-1.13179021 182.70401686 -1.13414265 176.3318218 -1.13571167 169.95962524 C-1.13764605 158.5770442 -1.13454301 147.19447178 -1.12945233 135.81189246 C-1.12498281 125.49894012 -1.12576291 115.18599902 -1.13037109 104.87304688 C-1.13572645 92.88240724 -1.13771273 80.89177443 -1.13475883 68.90113318 C-1.13320037 62.55904916 -1.13299058 56.21697289 -1.13629532 49.87488937 C-1.13918451 43.91426637 -1.13717901 37.95366461 -1.13140106 31.9930439 C-1.13007922 29.80612409 -1.13045782 27.6192025 -1.13266373 25.4322834 C-1.13539774 22.44647983 -1.13196652 19.46074431 -1.12698364 16.47494507 C-1.13032973 15.17819778 -1.13032973 15.17819778 -1.13374341 13.85525358 C-1.11846172 9.13150853 -0.78845133 4.65929956 0 0 Z " fill="#0A0C0F" transform="translate(719,375)"/>
<path d="M0 0 C0.66 0 1.32 0 2 0 C2.02347332 12.09456211 2.04108915 24.18911854 2.05181217 36.28369904 C2.05696622 41.90349651 2.06392243 47.52327808 2.07543945 53.14306641 C2.12597565 78.44783845 2.07487442 103.71453202 1 129 C0.34 129.33 -0.32 129.66 -1 130 C-1.02338257 114.08368927 -1.04100549 98.16738319 -1.05181217 82.25105953 C-1.05696375 74.86048241 -1.06398474 67.46991597 -1.07543945 60.0793457 C-1.08542109 53.63612138 -1.09186171 47.19290479 -1.09408849 40.74967295 C-1.09538969 37.33950852 -1.09843809 33.92936623 -1.10573006 30.51920891 C-1.11298863 26.7080237 -1.1139889 22.89688437 -1.11352539 19.08569336 C-1.11712067 17.96071945 -1.12071594 16.83574554 -1.12442017 15.67668152 C-1.11739813 10.34086063 -0.94384182 5.25560042 0 0 Z " fill="#1C1F23" transform="translate(719,375)"/>
<path d="M0 0 C0.33 0 0.66 0 1 0 C1 29.04 1 58.08 1 88 C0.67 88 0.34 88 0 88 C-1.3007632 75.85204797 -2.19480258 63.78610311 -2.1875 51.5625 C-2.1884668 50.01091187 -2.1884668 50.01091187 -2.18945312 48.42797852 C-2.15445955 43.56347399 -1.87142306 38.90227519 -1.23680115 34.07261658 C-0.8620518 30.79259993 -0.77669962 27.51735795 -0.68359375 24.21875 C-0.66281265 23.51979614 -0.64203156 22.82084229 -0.62062073 22.10070801 C-0.55601465 19.90055741 -0.49666091 17.70030304 -0.4375 15.5 C-0.39422983 13.99478158 -0.35061307 12.48957307 -0.30664062 10.984375 C-0.20042681 7.32302256 -0.09891804 3.66155766 0 0 Z " fill="#07090C" transform="translate(720,472)"/>
<path d="M0 0 C4.05143406 0.57331614 6.40378712 2.68116404 9.5 5.25 C10.4384375 6.01828125 11.376875 6.7865625 12.34375 7.578125 C14.89665014 9.90576925 16.92749454 12.24387061 19 15 C19.57621094 15.74378906 20.15242187 16.48757813 20.74609375 17.25390625 C25.29767634 23.46634345 28.36507735 29.77616711 31 37 C31.37253906 38.00804687 31.74507812 39.01609375 32.12890625 40.0546875 C32.95771505 42.85702756 33.21286954 44.97530506 33.125 47.875 C33.10695313 48.65617187 33.08890625 49.43734375 33.0703125 50.2421875 C33.04710937 50.82226562 33.02390625 51.40234375 33 52 C30.94976593 48.9246489 30.40767466 46.93847168 29.625 43.375 C25.5593315 26.6091492 15.58484711 12.45380735 1.6875 2.3125 C1.130625 1.879375 0.57375 1.44625 0 1 C0 0.67 0 0.34 0 0 Z " fill="#191C1F" transform="translate(712,303)"/>
<path d="M0 0 C0.55147705 0.06638672 1.1029541 0.13277344 1.67114258 0.20117188 C9.33487598 1.05174927 16.98335145 1.28822034 24.6875 1.5 C34.81044658 1.79960221 44.90552446 2.16764851 55 3 C55 3.33 55 3.66 55 4 C37.22730968 5.11702655 19.78251842 4.90025945 2 4 C1.34 2.68 0.68 1.36 0 0 Z " fill="#1B1E22" transform="translate(334,748)"/>
<path d="M0 0 C0.66 0 1.32 0 2 0 C3.19388403 38.85203459 3.19388403 38.85203459 3 56 C2.67 56 2.34 56 2 56 C-0.2640585 44.01095517 -0.23440568 32.27728762 -0.125 20.125 C-0.11494396 18.16536919 -0.10582278 16.20573335 -0.09765625 14.24609375 C-0.07586489 9.49726913 -0.04148165 4.74869177 0 0 Z " fill="#2E3236" transform="translate(718,620)"/>
<path d="M0 0 C0.66 0.33 1.32 0.66 2 1 C-4.17429949 5.35007464 -8.25545349 6.14705354 -15.6953125 6.38671875 C-16.81654007 6.42500542 -16.81654007 6.42500542 -17.9604187 6.46406555 C-19.54221954 6.51598779 -21.12410364 6.56542483 -22.70605469 6.61254883 C-25.09625091 6.68660921 -27.48541997 6.77755651 -29.875 6.86914062 C-37.82865457 7.13451191 -45.26561353 7.22487754 -53 5 C-53 4.67 -53 4.34 -53 4 C-52.42450409 3.99413376 -51.84900818 3.98826752 -51.256073 3.98222351 C-45.25340288 3.91817164 -39.25126305 3.83372168 -33.24902344 3.73754883 C-31.01048789 3.70434334 -28.77186951 3.67629784 -26.53320312 3.65356445 C-23.31083961 3.61993855 -20.08923226 3.56761728 -16.8671875 3.51171875 C-15.37153763 3.50213387 -15.37153763 3.50213387 -13.84567261 3.49235535 C-8.38635069 3.37745887 -4.83399489 2.77793058 0 0 Z " fill="#67696B" transform="translate(673,609)"/>
<path d="M0 0 C2.42410455 2.93768603 3.69763367 5.57725724 4.875 9.1875 C8.64734684 19.94514307 13.93648657 28.17813864 23.42578125 34.703125 C23.94527344 35.13109375 24.46476562 35.5590625 25 36 C25 36.66 25 37.32 25 38 C17.0598875 35.48275419 10.17753783 27.58914618 6.0625 20.5 C2.87897921 14.04000891 -0.35495609 7.30946612 0 0 Z " fill="#191D23" transform="translate(304,679)"/>
<path d="M0 0 C-0.66 0.99 -1.32 1.98 -2 3 C-3.99279615 3.37399816 -5.99438209 3.70232921 -8 4 C-19.15616503 8.79039939 -26.81225225 15.66364864 -33 26 C-33.99 25.67 -34.98 25.34 -36 25 C-35.10635485 23.79004746 -34.20994221 22.58213889 -33.3125 21.375 C-32.81363281 20.70210938 -32.31476563 20.02921875 -31.80078125 19.3359375 C-30.90939453 18.17964844 -30.90939453 18.17964844 -30 17 C-29.24976563 16.01773437 -28.49953125 15.03546875 -27.7265625 14.0234375 C-24.93687242 10.70480411 -21.72814805 8.51488911 -18.0625 6.25 C-17.17014648 5.67185547 -17.17014648 5.67185547 -16.25976562 5.08203125 C-11.00039969 1.7597214 -6.27730049 -0.36925297 0 0 Z " fill="#191D23" transform="translate(345,317)"/>
<path d="M0 0 C1.21803059 3.50266094 0.72385889 5.49873101 -0.39453125 8.984375 C-2.78816647 17.94858656 -2.57089635 27.03411758 -2.6875 36.25 C-2.72074175 38.07424221 -2.7552375 39.89846202 -2.79101562 41.72265625 C-2.87512537 46.14831216 -2.94229907 50.57392424 -3 55 C-3.33 55 -3.66 55 -4 55 C-4.21963825 49.68444674 -4.41593141 44.36868741 -4.59204102 39.05151367 C-4.65487705 37.24855352 -4.72372847 35.44579133 -4.79907227 33.64331055 C-5.82934044 8.74401065 -5.82934044 8.74401065 0 0 Z " fill="#232E3C" transform="translate(308,345)"/>
<path d="M0 0 C0.43828125 0.3403125 0.8765625 0.680625 1.328125 1.03125 C11.42347246 8.74639359 20.91347746 14.94516663 33 19 C33 19.33 33 19.66 33 20 C27.23726184 20.57989818 23.64308012 18.70178124 18.75 16 C18.00435791 15.59571777 17.25871582 15.19143555 16.49047852 14.77490234 C10.60790817 11.50617003 4.59596142 7.99119151 0 3 C0 2.01 0 1.02 0 0 Z " fill="#171A1E" transform="translate(300,728)"/>
<path d="M0 0 C7.81152566 7.24683706 13.64673778 17.67871221 14.10546875 28.484375 C14.12237492 30.66188956 14.09064064 32.8246247 14 35 C13.67 35 13.34 35 13 35 C12.896875 34.030625 12.79375 33.06125 12.6875 32.0625 C11.28256762 22.56971362 7.20399883 12.40097072 1.3125 4.83203125 C0 3 0 3 0 0 Z " fill="#1A1C21" transform="translate(706,333)"/>
<path d="M0 0 C0.33 0 0.66 0 1 0 C1 11.22 1 22.44 1 34 C0.67 34 0.34 34 0 34 C-0.33821197 31.14633646 -0.6706978 28.29219404 -1 25.4375 C-1.14308594 24.23770508 -1.14308594 24.23770508 -1.2890625 23.01367188 C-2.02387845 16.58403234 -2.56402099 10.41633525 -1 4.0625 C-0.814375 3.29035156 -0.62875 2.51820313 -0.4375 1.72265625 C-0.293125 1.15417969 -0.14875 0.58570313 0 0 Z " fill="#121418" transform="translate(720,430)"/>
<path d="M0 0 C0.77923828 0.37125 0.77923828 0.37125 1.57421875 0.75 C0.94515625 1.11351562 0.31609375 1.47703125 -0.33203125 1.8515625 C-8.16465033 6.4520466 -15.07833474 11.22119788 -21.42578125 17.75 C-22.41578125 18.41 -23.40578125 19.07 -24.42578125 19.75 C-23.24102973 13.32446529 -18.0855526 9.87044312 -12.98828125 6.26171875 C-11.74265717 5.41798255 -10.492605 4.58074789 -9.23828125 3.75 C-8.63218018 3.33983643 -8.0260791 2.92967285 -7.40161133 2.50708008 C-3.001203 -0.30930272 -3.001203 -0.30930272 0 0 Z " fill="#1A1D22" transform="translate(321.42578125,296.25)"/>
<path d="M0 0 C1.3143271 2.99250746 0.96707954 4.08635047 -0.22265625 7.20703125 C-0.82031069 8.4167012 -1.43446164 9.61832244 -2.0625 10.8125 C-2.38323486 11.43543945 -2.70396973 12.05837891 -3.03442383 12.70019531 C-6.27071101 18.80687989 -9.53725307 24.06616199 -16 27 C-14.47534548 23.63953698 -12.49346241 20.92171849 -10.25 18 C-6.05777562 12.33131703 -2.94412193 6.39008283 0 0 Z " fill="#1E2125" transform="translate(717,685)"/>
<path d="M0 0 C-9.15959423 6.53470049 -19.40782969 12.07834142 -31 11 C-31 10.67 -31 10.34 -31 10 C-29.90042969 9.70867188 -28.80085937 9.41734375 -27.66796875 9.1171875 C-19.54159805 6.88818752 -12.30584376 4.5668306 -5.1015625 0.0390625 C-3 -1 -3 -1 0 0 Z " fill="#1A1D21" transform="translate(700,714)"/>
<path d="M0 0 C0.33 0 0.66 0 1 0 C2.87804878 22.67073171 2.87804878 22.67073171 1 33 C-0.87811519 29.80948379 -1.24719862 27.47160303 -1.23046875 23.7890625 C-1.22853516 22.79132812 -1.22660156 21.79359375 -1.22460938 20.765625 C-1.21236328 19.72921875 -1.20011719 18.6928125 -1.1875 17.625 C-1.18685547 16.59632813 -1.18621094 15.56765625 -1.18554688 14.5078125 C-1.1569117 9.56983643 -1.04177743 4.85051573 0 0 Z " fill="#202327" transform="translate(719,546)"/>
<path d="M0 0 C3.2708518 0.49062777 6.37398169 1.10497732 9.5625 2 C15.26254042 3.48889945 21.14089432 3.66060059 27 4 C27 4.66 27 5.32 27 6 C21.00108767 7.05031462 16.53879813 6.84128788 10.6875 5.25 C9.98560547 5.07984375 9.28371094 4.9096875 8.56054688 4.734375 C4.96507146 3.80208776 2.28130081 3.04173441 0 0 Z " fill="#242B33" transform="translate(333,719)"/>
<path d="M0 0 C0.66 0.33 1.32 0.66 2 1 C1.72285156 2.01578125 1.44570313 3.0315625 1.16015625 4.078125 C-1.04984747 12.39909314 -2.67242821 20.35210474 -3 29 C-7.45615103 20.96110354 -4.31608787 12.34312079 -1.97265625 4.0625 C-1 1 -1 1 0 0 Z " fill="#171A1E" transform="translate(281,339)"/>
<path d="M0 0 C0.66 0 1.32 0 2 0 C2.25652344 0.58265625 2.51304687 1.1653125 2.77734375 1.765625 C6.29662605 9.30186589 10.8710556 15.49663259 16 22 C15.01 22 14.02 22 13 22 C7.50598051 16.50598051 3.43639953 9.95413395 0 3 C0 2.01 0 1.02 0 0 Z " fill="#191B1F" transform="translate(283,704)"/>
<path d="M0 0 C8.1955897 2.58009305 16.0717966 6.74326036 21 14 C17.75851799 13.40157255 15.9487578 12.35446658 13.4375 10.25 C8.7087838 6.54926558 3.51776357 4.29230619 -2 2 C-1.34 1.34 -0.68 0.68 0 0 Z " fill="#1D1F24" transform="translate(684,318)"/>
<path d="M0 0 C0.703125 1.59375 0.703125 1.59375 1 4 C-0.328125 7.09375 -0.328125 7.09375 -2.25 10.5 C-2.87390625 11.6240625 -3.4978125 12.748125 -4.140625 13.90625 C-5.64571514 16.41051762 -7.18618415 18.7159356 -9 21 C-9.99 20.67 -10.98 20.34 -12 20 C-11.55269531 19.39414062 -11.10539063 18.78828125 -10.64453125 18.1640625 C-6.45096521 12.35208398 -3.00350467 6.50528662 0 0 Z " fill="#171A1D" transform="translate(740,701)"/>
<path d="M0 0 C-1 3 -1 3 -3.1875 4.3515625 C-9.26668615 7.1040829 -14.32523937 8.67173308 -21 9 C-16.94539441 6.2969296 -12.58755665 4.90171011 -8.03125 3.21875 C-0.02564103 0 -0.02564103 0 0 0 Z " fill="#1A1C20" transform="translate(707,740)"/>
<path d="M0 0 C0.66 0 1.32 0 2 0 C2.19656224 2.20754516 2.38185459 4.41609539 2.5625 6.625 C2.66691406 7.85476563 2.77132812 9.08453125 2.87890625 10.3515625 C2.99191061 13.75627462 2.69045563 16.67558398 2 20 C-0.03120707 16.95318939 -0.24659875 16.39881676 -0.1953125 12.98828125 C-0.18886719 12.23095703 -0.18242188 11.47363281 -0.17578125 10.69335938 C-0.15902344 9.90767578 -0.14226563 9.12199219 -0.125 8.3125 C-0.11597656 7.51521484 -0.10695313 6.71792969 -0.09765625 5.89648438 C-0.07411585 3.930861 -0.03824547 1.96539225 0 0 Z " fill="#25282C" transform="translate(718,416)"/>
<path d="M0 0 C5.28 0.66 10.56 1.32 16 2 C16 2.33 16 2.66 16 3 C11.38 3.33 6.76 3.66 2 4 C1.34 2.68 0.68 1.36 0 0 Z " fill="#14171A" transform="translate(334,748)"/>
<path d="M0 0 C1.43410153 3.78819273 0.51009497 6.06521279 -0.9375 9.75 C-1.31777344 10.73484375 -1.69804687 11.7196875 -2.08984375 12.734375 C-2.39019531 13.48203125 -2.69054687 14.2296875 -3 15 C-3.33 15 -3.66 15 -4 15 C-3.63495936 9.33557626 -2.9445679 4.99296295 0 0 Z " fill="#12151C" transform="translate(308,345)"/>
<path d="M0 0 C0.66 0 1.32 0 2 0 C0.59155282 3.21524305 -1.10344786 5.32183868 -3.625 7.75 C-4.57246094 8.67039062 -4.57246094 8.67039062 -5.5390625 9.609375 C-6.02117188 10.06828125 -6.50328125 10.5271875 -7 11 C-7.99 10.67 -8.98 10.34 -10 10 C-9.44570313 9.52949219 -8.89140625 9.05898438 -8.3203125 8.57421875 C-7.59585938 7.95160156 -6.87140625 7.32898438 -6.125 6.6875 C-5.40570312 6.07261719 -4.68640625 5.45773437 -3.9453125 4.82421875 C-1.80820669 2.9587676 -1.80820669 2.9587676 0 0 Z " fill="#131518" transform="translate(726,723)"/>
<path d="M0 0 C4.76350585 0.71452588 9.34201396 1.79534844 14 3 C11 5 11 5 9.0625 4.86328125 C2.20512821 3.03205128 2.20512821 3.03205128 0 0 Z " fill="#1C2027" transform="translate(333,719)"/>
<path d="M0 0 C2 2 2 2 2.1953125 5.0390625 C2.17210937 6.22242188 2.14890625 7.40578125 2.125 8.625 C2.10695313 9.81351563 2.08890625 11.00203125 2.0703125 12.2265625 C2.04710937 13.14179687 2.02390625 14.05703125 2 15 C1.67 15 1.34 15 1 15 C0.63911385 12.68853911 0.28645809 10.37579171 -0.0625 8.0625 C-0.25972656 6.77472656 -0.45695313 5.48695313 -0.66015625 4.16015625 C-0.82837891 2.59587891 -0.82837891 2.59587891 -1 1 C-0.67 0.67 -0.34 0.34 0 0 Z " fill="#14181C" transform="translate(719,661)"/>
<path d="M0 0 C0 3.65859288 -1.27753524 4.94596639 -3.62109375 7.63671875 C-5.25187385 9.24901975 -6.85164149 10.20431166 -9 11 C-7.2034488 6.75360625 -4.18376817 2.09188408 0 0 Z " fill="#16181C" transform="translate(710,701)"/>
<path d="M0 0 C2.20080053 3.3012008 2.21218749 3.89101158 1.75 7.625 C1.66234375 8.42164063 1.5746875 9.21828125 1.484375 10.0390625 C1.32453125 10.68617188 1.1646875 11.33328125 1 12 C0.01 12.495 0.01 12.495 -1 13 C-1.02686553 11.02090602 -1.04633375 9.04171029 -1.0625 7.0625 C-1.07410156 5.96035156 -1.08570313 4.85820313 -1.09765625 3.72265625 C-1 1 -1 1 0 0 Z " fill="#24272B" transform="translate(719,527)"/>
<path d="M0 0 C2.66315194 2.66315194 2.94426493 4.65344068 3.09765625 8.359375 C3.08605469 9.14828125 3.07445312 9.9371875 3.0625 10.75 C3.05347656 11.54921875 3.04445313 12.3484375 3.03515625 13.171875 C3.01775391 14.07679688 3.01775391 14.07679688 3 15 C2.67 15 2.34 15 2 15 C1.855625 13.865625 1.71125 12.73125 1.5625 11.5625 C1.38828522 8.19222799 1.38828522 8.19222799 0 7 C-0.04092937 4.66702567 -0.04241723 2.33294775 0 0 Z " fill="#0E1012" transform="translate(717,353)"/>
<path d="M0 0 C0.66 0 1.32 0 2 0 C5.07692308 5.29230769 5.07692308 5.29230769 4.6875 8.875 C4.460625 9.57625 4.23375 10.2775 4 11 C2.03698408 7.49461443 1.04097612 3.86648272 0 0 Z " fill="#23252A" transform="translate(713,345)"/>
<path d="M0 0 C1.17219543 0.78345715 2.33763668 1.57702836 3.5 2.375 C4.47453125 3.03628906 4.47453125 3.03628906 5.46875 3.7109375 C5.9740625 4.13632812 6.479375 4.56171875 7 5 C7 5.66 7 6.32 7 7 C4.08482708 5.92598892 2.22189824 5.22189824 0 3 C0 2.01 0 1.02 0 0 Z " fill="#1E2329" transform="translate(322,710)"/>
<path d="M0 0 C2.23551759 3.35327639 2.17283528 3.90743657 1.625 7.6875 C1.51414062 8.49574219 1.40328125 9.30398438 1.2890625 10.13671875 C1.19367187 10.75160156 1.09828125 11.36648438 1 12 C0.34 11.67 -0.32 11.34 -1 11 C-1.125 3.375 -1.125 3.375 0 0 Z " fill="#1C2024" transform="translate(719,605)"/>
<path d="M0 0 C0.8971875 0.309375 0.8971875 0.309375 1.8125 0.625 C0.69176138 1.46405565 -0.43424547 2.29607831 -1.5625 3.125 C-2.18898438 3.5890625 -2.81546875 4.053125 -3.4609375 4.53125 C-5.1875 5.625 -5.1875 5.625 -7.1875 5.625 C-5.69046729 2.17030914 -4.27938051 -0.73360809 0 0 Z " fill="#23282F" transform="translate(329.1875,323.375)"/>
<path d="M0 0 C0.66 0.33 1.32 0.66 2 1 C-0.475 4.465 -0.475 4.465 -3 8 C-3.33 6.68 -3.66 5.36 -4 4 C-2.0625 1.75 -2.0625 1.75 0 0 Z " fill="#181A1E" transform="translate(293,318)"/>
<path d="M0 0 C0 0.33 0 0.66 0 1 C-4.29 0.67 -8.58 0.34 -13 0 C-13 -0.33 -13 -0.66 -13 -1 C-8.05632546 -2.20577428 -4.79137588 -1.6290678 0 0 Z " fill="#292C32" transform="translate(684,318)"/>
<path d="M0 0 C3.37462715 0.54723683 5.08235 1.0549 8 3 C8 3.66 8 4.32 8 5 C2.25 3.375 2.25 3.375 0 0 Z " fill="#212429" transform="translate(309,737)"/>
<path d="M0 0 C0.66 0 1.32 0 2 0 C0.7508258 3.45925163 -0.67527795 6.14693203 -3 9 C-2.5020163 5.26512223 -2.12508244 3.18762365 0 0 Z " fill="#13161A" transform="translate(286,328)"/>
<path d="M0 0 C0.66 1.32 1.32 2.64 2 4 C1.34 3.67 0.68 3.34 0 3 C0 2.01 0 1.02 0 0 Z " fill="#474D54" transform="translate(272,528)"/>
<path d="M0 0 C0.33 0 0.66 0 1 0 C1 1.65 1 3.3 1 5 C0.67 5 0.34 5 0 5 C0 3.35 0 1.7 0 0 Z " fill="#484E55" transform="translate(273,393)"/>
<path d="M0 0 C0.66 0 1.32 0 2 0 C1.67 0.99 1.34 1.98 1 3 C0.67 2.01 0.34 1.02 0 0 Z " fill="#484E55" transform="translate(272,634)"/>
<path d="M0 0 C1 4 1 4 1 4 Z " fill="#464D54" transform="translate(273,475)"/>
<path d="M0 0 C0.99 0.495 0.99 0.495 2 1 C1.67 1.66 1.34 2.32 1 3 C0.67 2.01 0.34 1.02 0 0 Z " fill="#484D55" transform="translate(272,457)"/>
<path d="M0 0 C0.99 0.495 0.99 0.495 2 1 C1.67 1.66 1.34 2.32 1 3 C0.67 2.01 0.34 1.02 0 0 Z " fill="#484E55" transform="translate(272,425)"/>
<path d="M0 0 C1 4 1 4 1 4 Z " fill="#474C54" transform="translate(273,373)"/>
<path d="M0 0 C0.66 0.66 1.32 1.32 2 2 C1.01 1.67 0.02 1.34 -1 1 C-0.67 0.67 -0.34 0.34 0 0 Z " fill="#494D56" transform="translate(705,336)"/>
<path d="M0 0 C3 1 3 1 3 1 Z " fill="#464A50" transform="translate(685,751)"/>
<path d="" fill="#464C53" transform="translate(0,0)"/>
<path d="" fill="#484E54" transform="translate(0,0)"/>
<path d="M0 0 C0.33 0.66 0.66 1.32 1 2 C0.34 1.67 -0.32 1.34 -1 1 C-0.67 0.67 -0.34 0.34 0 0 Z " fill="#484D54" transform="translate(273,562)"/>
<path d="" fill="#484D54" transform="translate(0,0)"/>
<path d="M0 0 C0.99 0.495 0.99 0.495 2 1 C1.01 1.495 1.01 1.495 0 2 C0 1.34 0 0.68 0 0 Z " fill="#494E55" transform="translate(706,339)"/>
<path d="M0 0 C3 1 3 1 3 1 Z " fill="#474B50" transform="translate(685,288)"/>
<path d="M0 0 C2 1 2 1 2 1 Z " fill="#454B51" transform="translate(325,748)"/>
<path d="M0 0 C2 1 2 1 2 1 Z " fill="#4A5769" transform="translate(345,720)"/>
<path d="M0 0 C2 1 2 1 2 1 Z " fill="#474C54" transform="translate(288,719)"/>
<path d="M0 0 C2 1 2 1 2 1 Z " fill="#4A4F57" transform="translate(695,712)"/>
<path d="M0 0 C2 1 2 1 2 1 Z " fill="#474B52" transform="translate(273,680)"/>
<path d="M0 0 C2 1 2 1 2 1 Z " fill="#494E55" transform="translate(272,659)"/>
<path d="" fill="#7E90A4" transform="translate(0,0)"/>
<path d="" fill="#474E55" transform="translate(0,0)"/>
<path d="" fill="#8A8D91" transform="translate(0,0)"/>
<path d="" fill="#484E55" transform="translate(0,0)"/>
<path d="" fill="#474C54" transform="translate(0,0)"/>
<path d="" fill="#474C53" transform="translate(0,0)"/>
<path d="" fill="#484D54" transform="translate(0,0)"/>
<path d="" fill="#484D54" transform="translate(0,0)"/>
<path d="" fill="#474D53" transform="translate(0,0)"/>
<path d="" fill="#474C52" transform="translate(0,0)"/>
<path d="M0 0 C2 1 2 1 2 1 Z " fill="#454C53" transform="translate(272,417)"/>
<path d="" fill="#474E54" transform="translate(0,0)"/>
<path d="" fill="#474E54" transform="translate(0,0)"/>
<path d="M0 0 C2 1 2 1 2 1 Z " fill="#494D56" transform="translate(694,327)"/>
<path d="M0 0 C2 1 2 1 2 1 Z " fill="#464E5A" transform="translate(326,327)"/>
<path d="M0 0 C2 1 2 1 2 1 Z " fill="#4C5058" transform="translate(675,319)"/>
<path d="" fill="#505760" transform="translate(0,0)"/>
<path d="" fill="#444B51" transform="translate(0,0)"/>
<path d="M0 0 C2 1 2 1 2 1 Z " fill="#474B4F" transform="translate(682,288)"/>
<path d="M0 0 C2 1 2 1 2 1 Z " fill="#4B4F54" transform="translate(336,288)"/>
<path d="" fill="#424243" transform="translate(0,0)"/>
<path d="" fill="#474950" transform="translate(0,0)"/>
<path d="" fill="#454B52" transform="translate(0,0)"/>
<path d="" fill="#494E53" transform="translate(0,0)"/>
<path d="" fill="#424951" transform="translate(0,0)"/>
<path d="" fill="#444B52" transform="translate(0,0)"/>
<path d="" fill="#44484F" transform="translate(0,0)"/>
<path d="" fill="#444B52" transform="translate(0,0)"/>
<path d="" fill="#484E51" transform="translate(0,0)"/>
<path d="" fill="#494C50" transform="translate(0,0)"/>
<path d="" fill="#474A51" transform="translate(0,0)"/>
<path d="" fill="#4A4F53" transform="translate(0,0)"/>
<path d="" fill="#4A4D56" transform="translate(0,0)"/>
<path d="" fill="#474952" transform="translate(0,0)"/>
<path d="" fill="#444A4F" transform="translate(0,0)"/>
<path d="" fill="#494F56" transform="translate(0,0)"/>
<path d="" fill="#464B58" transform="translate(0,0)"/>
<path d="" fill="#484C54" transform="translate(0,0)"/>
<path d="" fill="#484D54" transform="translate(0,0)"/>
<path d="" fill="#494F56" transform="translate(0,0)"/>
<path d="" fill="#464B51" transform="translate(0,0)"/>
<path d="" fill="#454B53" transform="translate(0,0)"/>
<path d="" fill="#464C53" transform="translate(0,0)"/>
<path d="" fill="#474952" transform="translate(0,0)"/>
<path d="" fill="#3A8AD1" transform="translate(0,0)"/>
<path d="" fill="#3C8ACE" transform="translate(0,0)"/>
<path d="" fill="#3A88CD" transform="translate(0,0)"/>
<path d="" fill="#3989CE" transform="translate(0,0)"/>
<path d="" fill="#4B5054" transform="translate(0,0)"/>
<path d="" fill="#51555B" transform="translate(0,0)"/>
<path d="" fill="#494D55" transform="translate(0,0)"/>
<path d="" fill="#53555A" transform="translate(0,0)"/>
<path d="" fill="#8A8E92" transform="translate(0,0)"/>
<path d="" fill="#7F8B9C" transform="translate(0,0)"/>
<path d="" fill="#484E55" transform="translate(0,0)"/>
<path d="" fill="#8F9195" transform="translate(0,0)"/>
<path d="" fill="#7A90A9" transform="translate(0,0)"/>
<path d="" fill="#4B4F56" transform="translate(0,0)"/>
<path d="" fill="#7D90A4" transform="translate(0,0)"/>
<path d="" fill="#7C90A6" transform="translate(0,0)"/>
<path d="" fill="#7F91A5" transform="translate(0,0)"/>
<path d="" fill="#484E54" transform="translate(0,0)"/>
<path d="" fill="#474C55" transform="translate(0,0)"/>
<path d="" fill="#8091A2" transform="translate(0,0)"/>
<path d="" fill="#8B8E93" transform="translate(0,0)"/>
<path d="" fill="#494F55" transform="translate(0,0)"/>
<path d="" fill="#474C56" transform="translate(0,0)"/>
<path d="" fill="#8E9093" transform="translate(0,0)"/>
<path d="" fill="#919496" transform="translate(0,0)"/>
<path d="" fill="#464E53" transform="translate(0,0)"/>
<path d="" fill="#494F53" transform="translate(0,0)"/>
<path d="" fill="#464B55" transform="translate(0,0)"/>
<path d="" fill="#4A5055" transform="translate(0,0)"/>
<path d="" fill="#494B54" transform="translate(0,0)"/>
<path d="" fill="#484E55" transform="translate(0,0)"/>
<path d="" fill="#474D55" transform="translate(0,0)"/>
<path d="" fill="#464D54" transform="translate(0,0)"/>
<path d="" fill="#959597" transform="translate(0,0)"/>
<path d="" fill="#484F54" transform="translate(0,0)"/>
<path d="" fill="#484D54" transform="translate(0,0)"/>
<path d="" fill="#4A4E55" transform="translate(0,0)"/>
<path d="" fill="#494E56" transform="translate(0,0)"/>
<path d="" fill="#4B5057" transform="translate(0,0)"/>
<path d="" fill="#494F56" transform="translate(0,0)"/>
<path d="" fill="#474D55" transform="translate(0,0)"/>
<path d="" fill="#474C53" transform="translate(0,0)"/>
<path d="" fill="#464D52" transform="translate(0,0)"/>
<path d="" fill="#494E55" transform="translate(0,0)"/>
<path d="" fill="#909192" transform="translate(0,0)"/>
<path d="" fill="#939496" transform="translate(0,0)"/>
<path d="" fill="#474C56" transform="translate(0,0)"/>
<path d="" fill="#484C54" transform="translate(0,0)"/>
<path d="" fill="#474D54" transform="translate(0,0)"/>
<path d="" fill="#494F54" transform="translate(0,0)"/>
<path d="" fill="#474D53" transform="translate(0,0)"/>
<path d="" fill="#474E56" transform="translate(0,0)"/>
<path d="" fill="#474C55" transform="translate(0,0)"/>
<path d="" fill="#494E56" transform="translate(0,0)"/>
<path d="" fill="#4A5056" transform="translate(0,0)"/>
<path d="" fill="#464C55" transform="translate(0,0)"/>
<path d="" fill="#474E54" transform="translate(0,0)"/>
<path d="" fill="#4A4F56" transform="translate(0,0)"/>
<path d="" fill="#484E56" transform="translate(0,0)"/>
<path d="" fill="#494F56" transform="translate(0,0)"/>
<path d="" fill="#464C54" transform="translate(0,0)"/>
<path d="" fill="#484E55" transform="translate(0,0)"/>
<path d="" fill="#4A4D54" transform="translate(0,0)"/>
<path d="" fill="#484B54" transform="translate(0,0)"/>
<path d="" fill="#3F8ED7" transform="translate(0,0)"/>
<path d="" fill="#484D54" transform="translate(0,0)"/>
<path d="" fill="#465162" transform="translate(0,0)"/>
<path d="" fill="#494D55" transform="translate(0,0)"/>
<path d="" fill="#454D52" transform="translate(0,0)"/>
<path d="" fill="#454B54" transform="translate(0,0)"/>
<path d="" fill="#474D53" transform="translate(0,0)"/>
<path d="" fill="#4B5261" transform="translate(0,0)"/>
<path d="" fill="#494B52" transform="translate(0,0)"/>
<path d="" fill="#454951" transform="translate(0,0)"/>
<path d="" fill="#4B4F58" transform="translate(0,0)"/>
<path d="" fill="#474B52" transform="translate(0,0)"/>
<path d="" fill="#494B53" transform="translate(0,0)"/>
<path d="" fill="#4B4F56" transform="translate(0,0)"/>
<path d="" fill="#484E56" transform="translate(0,0)"/>
<path d="" fill="#484D56" transform="translate(0,0)"/>
<path d="" fill="#465161" transform="translate(0,0)"/>
<path d="" fill="#484C50" transform="translate(0,0)"/>
<path d="" fill="#485262" transform="translate(0,0)"/>
<path d="" fill="#494C50" transform="translate(0,0)"/>
<path d="" fill="#4A4C54" transform="translate(0,0)"/>
<path d="" fill="#515761" transform="translate(0,0)"/>
<path d="" fill="#515761" transform="translate(0,0)"/>
<path d="" fill="#4F5661" transform="translate(0,0)"/>
<path d="" fill="#515760" transform="translate(0,0)"/>
<path d="" fill="#505660" transform="translate(0,0)"/>
<path d="" fill="#525862" transform="translate(0,0)"/>
<path d="" fill="#505662" transform="translate(0,0)"/>
<path d="" fill="#505863" transform="translate(0,0)"/>
<path d="" fill="#515A66" transform="translate(0,0)"/>
<path d="" fill="#505965" transform="translate(0,0)"/>
<path d="" fill="#4F5A65" transform="translate(0,0)"/>
<path d="" fill="#4F5866" transform="translate(0,0)"/>
<path d="" fill="#4F5B68" transform="translate(0,0)"/>
<path d="" fill="#4D5B6A" transform="translate(0,0)"/>
<path d="" fill="#4B5E76" transform="translate(0,0)"/>
<path d="" fill="#494E50" transform="translate(0,0)"/>
<path d="" fill="#50575F" transform="translate(0,0)"/>
<path d="" fill="#4C5A6E" transform="translate(0,0)"/>
<path d="" fill="#4B5D71" transform="translate(0,0)"/>
<path d="" fill="#494C55" transform="translate(0,0)"/>
<path d="" fill="#4E5358" transform="translate(0,0)"/>
<path d="" fill="#474A50" transform="translate(0,0)"/>
<path d="" fill="#494D54" transform="translate(0,0)"/>
<path d="" fill="#474C54" transform="translate(0,0)"/>
<path d="" fill="#494C51" transform="translate(0,0)"/>
<path d="" fill="#4E5156" transform="translate(0,0)"/>
<path d="" fill="#525253" transform="translate(0,0)"/>
</svg>
